<svg width="238" height="74" viewBox="0 0 238 74" fill="none" xmlns="http://www.w3.org/2000/svg">
<ellipse cx="119.5" cy="37" rx="31.5" ry="31" fill="#F1592A"/>
<rect x="119" y="51" width="1" height="12" fill="white"/>
<rect x="82.5" y="0.5" width="73" height="73" rx="11.5" stroke="black" stroke-opacity="0.24"/>
<rect x="0.5" y="0.5" width="73" height="73" rx="11.5" stroke="black" stroke-opacity="0.24"/>
<rect x="4" y="4" width="32" height="32" rx="8" fill="#5041FF"/>
<rect x="4.5" y="39.5" width="31" height="30" rx="7.5" stroke="#C8C8C8"/>
<rect x="39.5" y="4.5" width="30" height="31" rx="7.5" stroke="#C8C8C8"/>
<rect x="39.5" y="39.5" width="30" height="30" rx="7.5" stroke="#C8C8C8"/>
<rect x="164.5" y="0.5" width="73" height="73" rx="11.5" stroke="#A8A8A8"/>
<rect x="192" y="9" width="18" height="56" rx="2" fill="#FFC700"/>
<rect x="173" y="46" width="18" height="56" rx="2" transform="rotate(-90 173 46)" fill="#FFC700"/>
<path d="M205 20L201 16L197 20H205Z" fill="#E5E5E5"/>
<path d="M197 54L201 58L205 54L197 54Z" fill="#E5E5E5"/>
<path d="M184 33L180 37L184 41L184 33Z" fill="#E5E5E5"/>
<path d="M218 41L222 37L218 33L218 41Z" fill="#E5E5E5"/>
<circle cx="146" cy="10" r="5" fill="#C4C4C4"/>
<path fill-rule="evenodd" clip-rule="evenodd" d="M148 8.79997L147.2 8L146 9.20015L144.8 8.00032L144 8.80029L145.2 10.0001L144 11.1999L144.8 11.9999L146 10.8001L147.2 12.0002L148 11.2002L146.8 10.0001L148 8.79997Z" fill="white"/>
</svg>
